<svg xmlns="http://www.w3.org/2000/svg" viewBox="0 0 32 32" width="32" height="32">
  <!-- Background circle for better visibility -->
  <circle cx="16" cy="16" r="15" fill="white" stroke="#333" stroke-width="0.5"/>
  
  <!-- Radiating lines from the top -->
  <g stroke="#FFD700" stroke-width="1.5" stroke-linecap="round">
    <line x1="16" y1="2" x2="16" y2="4"/>
    <line x1="18.5" y1="3" x2="17.5" y2="5"/>
    <line x1="21" y1="5" x2="19.5" y2="6.5"/>
    <line x1="23" y1="8" x2="21" y2="9"/>
    <line x1="24.5" y1="11.5" x2="22" y2="12"/>
    <line x1="25.5" y1="15" x2="22.5" y2="15"/>
    <line x1="25.5" y1="18.5" x2="22.5" y2="18.5"/>
    <line x1="24.5" y1="22" x2="22" y2="21.5"/>
    <line x1="23" y1="25" x2="21" y1="24"/>
    <line x1="21" y1="27.5" x2="19.5" y2="26.5"/>
    <line x1="18.5" y1="29.5" x2="17.5" y2="28"/>
    <line x1="16" y1="30" x2="16" y2="28"/>
    <line x1="13.5" y1="29.5" x2="14.5" y2="28"/>
    <line x1="11" y1="27.5" x2="12.5" y2="26.5"/>
    <line x1="9" y1="25" x2="11" y1="24"/>
    <line x1="7.5" y1="22" x2="10" y2="21.5"/>
    <line x1="6.5" y1="18.5" x2="9.5" y2="18.5"/>
    <line x1="6.5" y1="15" x2="9.5" y2="15"/>
    <line x1="7.5" y1="11.5" x2="10" y2="12"/>
    <line x1="9" y1="8" x2="11" y2="9"/>
    <line x1="11" y1="5" x2="12.5" y2="6.5"/>
    <line x1="13.5" y1="3" x2="14.5" y2="5"/>
  </g>
  
  <!-- Main Q letter -->
  <g fill="#333">
    <!-- Q circle -->
    <path d="M16 8 C11.6 8 8 11.6 8 16 C8 20.4 11.6 24 16 24 C20.4 24 24 20.4 24 16 C24 11.6 20.4 8 16 8 Z M16 10 C19.3 10 22 12.7 22 16 C22 19.3 19.3 22 16 22 C12.7 22 10 19.3 10 16 C10 12.7 12.7 10 16 10 Z"/>
    <!-- Q tail -->
    <path d="M20 20 L24 24 L22 26 L18 22 Z"/>
  </g>
  
  <!-- Gold star in the center -->
  <g fill="#FFD700">
    <path d="M16 12 L17.5 15.5 L21 15.5 L18.5 17.5 L19.5 21 L16 19 L12.5 21 L13.5 17.5 L11 15.5 L14.5 15.5 Z"/>
  </g>
</svg>







