<svg xmlns="http://www.w3.org/2000/svg" width="200" height="69" viewBox="0 0 200 69" fill="none">
  <path fill-rule="evenodd" clip-rule="evenodd" d="M68.1222 47.3164L66.3948 44.556C65.4344 45.462 64.2626 45.9815 63.1211 45.9815C62.5956 45.9815 62.3177 45.9211 61.1701 45.6251C60.0286 45.299 59.2192 45.2023 58.3253 45.2023C54.2785 45.2023 51.6511 47.4069 51.6511 50.8195C51.6511 53.2899 52.7625 54.8119 55.0516 55.428C54.1275 55.6575 53.1007 56.1407 52.6417 56.6964C52.3034 57.089 52.1464 57.6024 52.1464 58.2185C52.1464 58.7379 52.2672 59.1909 52.4544 59.5835C52.6719 59.9399 52.9799 60.2298 53.3484 60.3929C54.0852 60.6828 55.2932 60.8821 57.1475 60.9123C58.1079 60.9123 58.6937 60.9425 58.9112 60.9425C60.0527 61.009 60.6447 61.2023 61.0735 61.4318C61.5084 61.6915 61.8164 62.2774 61.8164 62.9237C61.8164 63.57 61.4118 64.2222 60.8259 64.6148C60.2702 65.0074 59.3763 65.1705 58.1985 65.1705C56.2838 65.1705 55.2328 64.4578 55.2328 63.123C55.2328 62.5371 55.2932 62.4102 55.4201 62.0539H51.5847C51.4337 62.38 51.2162 62.8331 51.2162 63.7451C51.2162 64.8806 51.6511 65.8531 52.5148 66.6987C53.9342 68.0939 56.2536 68.4865 58.5065 68.4865C60.9769 68.4865 63.3566 67.9007 64.7458 66.3423C65.6095 65.3699 66.0142 64.3008 66.0142 62.9055C66.0142 61.4137 65.5793 60.2782 64.6552 59.3661C63.5439 58.291 62.2755 57.9045 59.8655 57.8743L57.6428 57.844C57.2079 57.844 56.9663 57.6809 56.9663 57.4514C56.9663 56.9984 57.5522 56.6058 58.6031 56.0864C58.9112 56.1166 59.038 56.1166 59.2192 56.1166C62.5896 56.1166 65.0599 54.0388 65.0599 51.1819C65.0599 50.0766 64.7519 49.231 64.1298 48.4579C64.6552 48.5182 64.8062 48.5545 65.2109 48.5545C66.3525 48.5545 67.2162 48.1981 68.1161 47.3223L68.1222 47.3164Z" fill="#4FB848"/>
  <text x="100" y="35" text-anchor="middle" fill="white" font-family="Arial, sans-serif" font-size="14" font-weight="bold">swampUP 2025</text>
</svg>
